<svg id="visual" viewBox="0 0 1920 1080" width="1920" height="1080" xmlns="http://www.w3.org/2000/svg" xmlns:xlink="http://www.w3.org/1999/xlink" version="1.1"><rect x="0" y="0" width="1920" height="1080" fill="#FFFFFF"></rect><path d="M734 0L724.3 22.5C714.7 45 695.3 90 686 135C676.7 180 677.3 225 697.5 270C717.7 315 757.3 360 762.7 405C768 450 739 495 717.5 540C696 585 682 630 689.5 675C697 720 726 765 741.5 810C757 855 759 900 746.2 945C733.3 990 705.7 1035 691.8 1057.5L678 1080L0 1080L0 1057.5C0 1035 0 990 0 945C0 900 0 855 0 810C0 765 0 720 0 675C0 630 0 585 0 540C0 495 0 450 0 405C0 360 0 315 0 270C0 225 0 180 0 135C0 90 0 45 0 22.5L0 0Z" fill="#Daaa63" stroke-linecap="round" stroke-linejoin="miter"></path></svg>